# xmcd
#
# Track frame offsets:
#	150
#	15380
#	34235
#	48990
#	66340
#	79732
#	94475
#	114080
#	128705
#	143555
#	156872
#	169092
#
# Disc length: 2433
#
# Revision: 2
# Processed by: cddbd v1.5.1PL0 Copyright (c) Steve Scherf et al.
# Submitted via: uFREEDB 1.6.0
# Normalized: r0:TDELIM( - ),TSWAP
#
DISCID=95097f0c
DTITLE=Various Artist - CDX Vol. 19
DYEAR=1991
DGENRE=Country
TTITLE0=Ricky Van Shelton - After The Lights Go Out
TTITLE1=DeGarmo and Key - Family Reunion
TTITLE2=Paulette Carlson - I Start With You
TTITLE3=Joe Diffie - Is It Cold In Here
TTITLE4=Freddy Fender - It's All In The ame
TTITLE5=Gary Morris - One Fall Is All It Takes
TTITLE6=John Denver - Potter's Wheel
TTITLE7=Michael White - Professional Fool
TTITLE8=George Jones - She Loved A Lot In Her Time
TTITLE9=John Anderson - Straight Tequila Night
TTITLE10=Trisha Yearwood - That's What I Like About You
TTITLE11=Donna Ulise - Trouble At The Door
EXTD=
EXTT0=
EXTT1=
EXTT2=
EXTT3=
EXTT4=
EXTT5=
EXTT6=
EXTT7=
EXTT8=
EXTT9=
EXTT10=
EXTT11=
PLAYORDER=
